<svg width="130" height="34" viewBox="0 0 130 34" xmlns="http://www.w3.org/2000/svg">
  <g data-name="17_Graduation" id="_17_Graduation" transform="translate(0, 5)">
    <rect height="5" style="fill:#febc00" width="27" x="2" y="18"/>
    <path d="M3.5,18H2V23H29.5V22H7.5A4,4,0,0,1,3.5,18Z" style="fill:#edaa03"/>
    <path d="M17.022,22.739a4,4,0,0,1-3.264-2.043L8.5,25.953a0.5,0,0,0,.258.844l1.427.278.29,1.442a0.5,0,0,0,.844.255l5.356-5.171-.326-.33Z" style="fill:#cc2600"/>
    <path d="M23.078,25.704l-5.15-5.15a4,4,0,0,1-3.364,1.944l.015.015-.164.165,5.15,5.15a0.5,0.5,0,0,0,.844-.255l.29-1.442,1.944.512a0.5,0,0,0,.258-.844Z" style="fill:#cc2600"/>
    <path d="M16.063,23.997c-.021,0-.041,.003-.063,.003-.077,0-.15-.007-.228-.011l-.023.023.164.165.164-.165Z" style="fill:#cc2600"/>
    <path d="M7.5,6H24.5a0,0,0,0,1,0,0V15a1,1,0,0,1-1,1H8.5a1,1,0,0,1-1-1V6A0,0,0,0,1,7.5,6Z" style="fill:#0455bf"/>
    <path d="M8.5,6H7.5V15a1,1,0,0,0,1,1H23.5a1,1,0,0,0,1-1H17.5A9,9,0,0,1,8.5,6Z" style="fill:#004787"/>
    <rect height="6" style="fill:#0455bf" width="1" x="26.5" y="5.5"/>
    <rect height="6" style="fill:#004787" width="0.5" x="27" y="5.5"/>
    <path d="M28.125,17h-2.25c-.207,0-.375-.224-.375-.5V11c0-.276,.168-.5,.375-.5h2.25c.207,0,.375,.224,.375,.5V16.5c0,.276-.168,.5-.375,.5Z" style="fill:#f74e0c"/>
    <path d="M26.875,16c-.207,0-.375-.224-.375-.5V10.5H25.875c-.207,0-.375,.224-.375,.5V16.5c0,.276,.168,.5,.375,.5h2.25c.207,0,.375-.224,.375-.5V16Z" style="fill:#cc2600"/>
    <path d="M2,23c-.855,0-1.5-1.075-1.5-2.5s.645-2.5,1.5-2.5,1.5,1.075,1.5,2.5S2.855,23,2,23Z" style="fill:#f74e0c"/>
    <path d="M1,20a3.25,3.25,0,0,1,.579-1.988C1.8,18.011,1.777,18,1.5,18c-.855,0-1.5,1.075-1.5,2.5s.645,2.5,1.5,2.5a1.185,1.185,0,0,0,.922-.513C1.607,21.923,1,21.381,1,20Z" style="fill:#cc2600"/>
    <path d="M29.5,23c-.855,0-1.5-1.075-1.5-2.5s.645-2.5,1.5-2.5,1.5,1.075,1.5,2.5S30.355,23,29.5,23Z" style="fill:#f74e0c"/>
    <path d="M16,24.5a4,4,0,1,1,4-4,4,4,0,0,1-4,4Z" style="fill:#f74e0c"/>
    <path d="M16,22.5a2,2,0,1,1,2-2,2,2,0,0,1-2,2Z" style="fill:#cc2600"/>
    <path d="M28,7H4a0.5,0.5,0,0,1-.5-.5V4.5a0.5,0.5,0,0,1,.5-.5H28a0.5,0.5,0,0,1,.5,.5V6.5a0.5,0.5,0,0,1-.5,.5Z" style="fill:#0455bf"/>
    <path d="M28.5,6H4.5V4.5H4a0.5,0.5,0,0,0-.5,.5V6.5a0.5,0,0,0,.5,.5H28a0.5,0.5,0,0,0,.5-.5Z" style="fill:#004787"/>
  </g>

  <!-- Learnify Text -->
  <text 
    x="40" 
    y="25" 
    font-family="Arial, sans-serif" 
    font-weight="bold" 
    font-size="20" 
    fill="#000000"> <!-- تم تغيير اللون إلى الأسود -->
    Learnify
  </text>
</svg>